<svg width="221" height="221" viewBox="0 0 221 221" fill="none" xmlns="http://www.w3.org/2000/svg">
<g clip-path="url(#clip0_5_2)">
<path d="M152.061 133.371C151.804 133.837 151.658 134.355 151.634 134.886C151.61 135.418 151.708 135.947 151.922 136.434C152.075 136.783 155.549 145.016 146.427 150.26C145.981 150.503 145.589 150.836 145.276 151.238C144.849 151.808 144.607 152.495 144.583 153.206C144.559 153.918 144.754 154.62 145.142 155.217C145.2 155.307 146.575 157.417 148.617 160.356C149.253 161.246 149.662 162.277 149.81 163.36C149.958 164.444 149.84 165.547 149.467 166.575C149.095 167.563 148.488 168.444 147.697 169.142C146.906 169.84 145.956 170.333 144.931 170.579C143.676 170.866 142.366 170.785 141.157 170.347C139.947 169.908 138.89 169.131 138.111 168.107L119.8 144.652C118.859 143.453 117.769 142.379 116.556 141.457L123.127 139.696C124.018 139.471 124.788 138.911 125.275 138.132C125.763 137.353 125.931 136.416 125.744 135.516C125.637 135.064 125.442 134.638 125.167 134.264C124.893 133.889 124.547 133.573 124.149 133.335C123.75 133.097 123.308 132.941 122.848 132.877C122.389 132.813 121.921 132.842 121.473 132.962L75.9633 145.156C70.4056 146.645 64.5105 143.602 62.812 138.104C62.3907 136.739 62.249 135.302 62.3953 133.88C62.5415 132.459 62.9728 131.081 63.6634 129.83C64.354 128.578 65.2896 127.479 66.4145 126.597C67.5394 125.716 68.8304 125.07 70.2105 124.698L82.0069 121.537C85.1743 120.684 87.9759 118.819 89.9844 116.226C91.9928 113.632 93.0981 110.453 93.1315 107.173C97.9208 106.488 106.193 104.456 111.966 98.4342C114.622 100.959 117.793 102.878 121.262 104.06C121.287 107.225 120.485 113.393 114.562 117.779C113.825 118.307 113.316 119.096 113.14 119.986C112.963 120.876 113.133 121.8 113.614 122.569C113.872 122.96 114.207 123.294 114.598 123.552C114.99 123.809 115.429 123.985 115.89 124.067C116.352 124.15 116.825 124.139 117.281 124.033C117.738 123.928 118.168 123.731 118.546 123.455C126.2 117.869 127.922 110.27 128.154 105.427C130.631 105.593 133.118 105.477 135.569 105.082C136.042 105.008 136.494 104.837 136.897 104.58C137.3 104.322 137.646 103.984 137.912 103.587C138.178 103.19 138.359 102.742 138.444 102.271C138.528 101.8 138.514 101.317 138.403 100.852C138.184 99.9993 137.654 99.259 136.918 98.7764C136.181 98.2937 135.291 98.1034 134.422 98.2427C124.139 99.8307 118.309 95.1754 115.971 92.6466C118.275 87.8072 118.846 82.0129 117.666 75.3577C117.584 74.8987 117.411 74.4607 117.157 74.0701C116.902 73.6795 116.571 73.3442 116.184 73.0844C115.797 72.8245 115.362 72.6454 114.904 72.5577C114.446 72.4701 113.975 72.4757 113.52 72.5742C111.664 72.9734 110.546 74.8632 110.868 76.7322C112.023 83.429 110.977 88.8124 107.758 92.7363C101.601 100.24 89.3254 100.585 89.2097 100.587C88.5264 100.599 87.8619 100.813 87.2993 101.201C86.7368 101.588 86.3013 102.134 86.0474 102.768C85.7713 103.473 85.7291 104.247 85.9271 104.978C86.47 107.044 86.1735 109.24 85.1023 111.088C84.0311 112.936 82.2723 114.285 80.2099 114.84L66.9896 118.383C62.1988 119.667 56.0102 118.948 54.3296 112.7C54.1587 112.014 53.7791 111.397 53.2432 110.936C52.7072 110.475 52.0413 110.191 51.3373 110.124C50.7774 110.068 50.2123 110.149 49.6904 110.359C49.1685 110.569 48.7054 110.903 48.3407 111.331C47.9761 111.76 47.7207 112.27 47.5966 112.819C47.4725 113.368 47.4833 113.939 47.6281 114.483C49.1272 120.078 53.0993 123.877 58.3294 125.275C56.9585 127.338 56.0408 129.669 55.6369 132.112C55.233 134.556 55.352 137.058 55.9862 139.453C58.4656 148.818 68.4613 154.343 77.8185 151.835L102.939 145.104C105.003 144.551 107.185 144.617 109.211 145.296C111.237 145.974 113.019 147.234 114.334 148.918L132.763 172.524C134.92 175.288 138.07 177.102 141.544 177.579C145.018 178.056 148.541 177.159 151.363 175.077C154.185 172.996 156.083 169.896 156.653 166.436C157.224 162.976 156.421 159.43 154.417 156.553C153.836 155.719 153.306 154.947 152.845 154.268C159.264 149.156 160.181 142.414 159.384 137.529C163.189 136.146 165.43 133.786 166.655 131.438C166.928 130.903 167.057 130.307 167.03 129.708C167.002 129.109 166.82 128.527 166.499 128.019C166.179 127.512 165.733 127.097 165.203 126.814C164.674 126.531 164.08 126.391 163.481 126.408C162.869 126.418 162.272 126.593 161.751 126.913C161.23 127.233 160.804 127.687 160.518 128.227C159.859 129.5 158.29 131.049 154.574 131.616C154.049 131.696 153.549 131.896 153.113 132.2C152.677 132.505 152.317 132.905 152.061 133.371ZM172.702 70.6121C171.65 67.345 169.346 61.9755 164.991 59.1774C164.25 58.6785 163.349 58.4757 162.465 58.6092C161.582 58.7426 160.78 59.2026 160.22 59.8983C159.926 60.2833 159.715 60.7258 159.603 61.197C159.49 61.6683 159.478 62.158 159.566 62.6344C159.654 63.1109 159.841 63.5636 160.115 63.9633C160.389 64.363 160.744 64.7008 161.156 64.955C164.37 66.9354 166.203 72.6506 166.637 74.6787C166.803 75.4716 167.241 76.1812 167.876 76.6846C168.511 77.1879 169.301 77.4531 170.111 77.4341C174.701 77.3255 178.838 80.1501 180.026 84.5854L182.807 94.9624C183.706 98.3178 183.236 101.893 181.5 104.902C179.764 107.911 176.905 110.108 173.551 111.009C168.788 112.285 165.086 111.931 162.545 109.952C162.013 109.536 161.537 109.054 161.128 108.517C160.559 107.787 159.724 107.312 158.805 107.197C157.886 107.083 156.96 107.338 156.229 107.907C155.499 108.476 155.024 109.311 154.91 110.23C154.795 111.149 155.05 112.075 155.619 112.806C158.765 116.873 165.03 120.532 175.518 117.659C180.61 116.249 184.937 112.884 187.557 108.296C190.177 103.708 190.876 98.2699 189.502 93.1684L186.721 82.7914C185.851 79.6024 184.055 76.743 181.559 74.575C179.064 72.4071 175.982 71.028 172.702 70.6121ZM122.507 36.0854C115.757 36.1905 109.265 38.6989 104.199 43.1601C85.0336 37.0761 72.321 42.8705 64.9675 48.9245C56.8219 55.6305 53.4935 63.9679 53.3558 64.3196C53.0271 65.1735 53.0494 66.1228 53.4177 66.9604C53.7861 67.798 54.4706 68.4559 55.3221 68.7908C56.1737 69.1257 57.123 69.1103 57.9633 68.7481C58.8035 68.3858 59.4664 67.706 59.8075 66.8569C60.2403 65.7706 70.273 41.5488 99.115 48.9109C98.6304 49.6169 98.166 50.3463 97.728 51.1024C95.7331 54.6148 94.0642 58.3027 92.7424 62.1197C92.5908 62.549 92.5251 63.0038 92.5493 63.4584C92.5734 63.913 92.6869 64.3584 92.8832 64.7691C93.0794 65.1798 93.3547 65.5479 93.6932 65.8523C94.0317 66.1566 94.4269 66.3913 94.8561 66.543C95.2853 66.6946 95.7402 66.7602 96.1948 66.7361C96.6493 66.7119 97.0947 66.5985 97.5055 66.4022C97.9162 66.2059 98.2842 65.9307 98.5886 65.5922C98.893 65.2537 99.1277 64.8585 99.2793 64.4293C100.46 61.0152 101.95 57.7163 103.732 54.5739C107.939 47.2931 114.66 43.1886 122.655 43.0182C123.575 42.9988 124.448 42.615 125.084 41.9513C125.721 41.2876 126.067 40.3984 126.048 39.4792C126.028 38.5601 125.645 37.6863 124.981 37.0501C124.317 36.4139 123.428 36.0674 122.509 36.0869L122.507 36.0854ZM133.049 45.0979L133.068 45.1063C133.79 45.4156 134.595 45.4728 135.353 45.2688C135.859 45.1358 136.328 44.8894 136.725 44.5483C137.122 44.2071 137.436 43.7802 137.644 43.2998C137.922 42.6667 138.006 41.9653 137.885 41.2845C137.764 40.6037 137.444 39.9741 136.965 39.4753C136.486 38.9766 135.87 38.6312 135.195 38.4829C134.519 38.3346 133.815 38.39 133.171 38.6422C132.527 38.8943 131.973 39.3319 131.578 39.8994C131.183 40.467 130.965 41.1389 130.952 41.8303C130.94 42.5216 131.132 43.2012 131.506 43.783C131.88 44.3648 132.417 44.8226 133.051 45.0985L133.049 45.0979ZM146.481 71.1543C146.272 72.0497 146.427 72.9913 146.913 73.7722C147.398 74.553 148.174 75.1091 149.069 75.318C149.964 75.527 150.906 75.3717 151.687 74.8864C152.468 74.4011 153.024 73.6254 153.233 72.7301C153.233 72.7301 153.293 72.4778 153.382 72.0097C155.251 62.2812 152.745 53.1016 146.327 46.1617C146.018 45.8275 145.646 45.5575 145.233 45.367C144.819 45.1765 144.373 45.0693 143.918 45.0515C143.463 45.0338 143.009 45.1058 142.582 45.2634C142.155 45.4211 141.763 45.6613 141.429 45.9704C141.095 46.2795 140.825 46.6513 140.634 47.0648C140.444 47.4782 140.336 47.9251 140.319 48.38C140.301 48.8349 140.373 49.2888 140.53 49.7159C140.688 50.1429 140.928 50.5347 141.237 50.8689C146.121 56.1482 148.016 63.1929 146.574 70.7021C146.523 70.9677 146.488 71.1246 146.481 71.1543Z" fill="url(#paint0_angular_5_2)"/>
<path d="M30.2481 123.912C31.1408 130.952 35.5269 137.238 43.2847 142.597C44.0413 143.116 44.9727 143.314 45.8749 143.147C46.7772 142.981 47.5766 142.463 48.098 141.709C48.6195 140.954 48.8204 140.023 48.6567 139.12C48.493 138.217 47.9781 137.416 47.2248 136.893C41.1845 132.72 37.7892 128.081 37.1338 123.105C36.2218 116.177 40.928 110.547 40.9641 110.505C41.4663 109.925 41.7622 109.196 41.8055 108.43C41.8488 107.665 41.637 106.907 41.2034 106.274C33.0012 94.3103 41.4936 85.2559 42.0186 84.7185C45.6094 81.3036 49.482 79.6316 53.5314 79.7494C61.4084 79.9791 67.8146 86.7236 67.9277 86.844C68.5516 87.5192 69.4182 87.919 70.3369 87.9552C71.2555 87.9915 72.151 87.6613 72.8262 87.0374C73.5014 86.4134 73.9011 85.5468 73.9374 84.6281C73.9736 83.7095 73.6435 82.814 73.0195 82.1388C72.682 81.7729 64.6286 73.168 53.793 72.8215C47.7889 72.6294 42.2062 74.9555 37.1986 79.7349L37.1516 79.7807C32.7537 84.1394 26.8464 95.4008 34.1691 108.105C32.251 111.086 29.3607 116.907 30.2481 123.912Z" fill="url(#paint1_angular_5_2)"/>
</g>
<defs>
<radialGradient id="paint0_angular_5_2" cx="0" cy="0" r="1" gradientUnits="userSpaceOnUse" gradientTransform="translate(119.607 107.716) rotate(75) scale(74.2138 71.2781)">
<stop stop-color="#7300FF"/>
<stop offset="0.28" stop-color="#E009D1" stop-opacity="0.5"/>
<stop offset="1" stop-color="#FF13B8"/>
</radialGradient>
<radialGradient id="paint1_angular_5_2" cx="0" cy="0" r="1" gradientUnits="userSpaceOnUse" gradientTransform="translate(52.7376 106.749) rotate(75) scale(33.3925 26.359)">
<stop stop-color="#7300FF"/>
<stop offset="0.28" stop-color="#E009D1" stop-opacity="0.5"/>
<stop offset="1" stop-color="#FF13B8"/>
</radialGradient>
<clipPath id="clip0_5_2">
<rect width="180" height="180" fill="white" transform="translate(0 46.5874) rotate(-15)"/>
</clipPath>
</defs>
</svg>
