<svg 
  version="1.0"
  xmlns="http://www.w3.org/2000/svg"
  width="250.000000pt"
  height="290.000000pt"
  viewBox="0 0 250.000000 290.000000"
  preserveAspectRatio="xMidYMid meet">
    <g transform="translate(0.000000,290.000000) scale(0.100000,-0.100000)"
    fill="#000000" stroke="none">
        <path d="M2180 2857 c-53 -27 -48 -107 8 -132 33 -15 29 -56 -8 -77 -52 -30
        -50 -105 5 -130 38 -17 34 -60 -6 -75 -43 -17 -69 -2 -69 38 0 21 -9 40 -30
        59 -29 27 -42 80 -20 80 19 0 50 40 50 64 0 39 -36 76 -75 76 -24 0 -39 -7
        -54 -26 -34 -43 -24 -86 27 -113 32 -17 28 -52 -8 -73 -56 -32 -48 -111 14
        -133 21 -7 34 -6 55 6 37 21 71 6 71 -31 0 -72 87 -108 129 -54 12 15 21 36
        21 48 0 23 -33 66 -50 66 -22 0 -9 53 20 80 19 18 30 38 30 55 0 17 -11 37
        -30 55 -38 35 -40 72 -4 90 33 18 58 3 62 -38 2 -20 14 -40 33 -56 37 -31 37
        -61 -1 -96 -19 -17 -30 -38 -30 -54 0 -34 41 -76 75 -76 33 0 75 42 75 75 0
        26 -39 75 -60 75 -5 0 -10 14 -10 30 0 19 5 30 14 30 18 0 56 47 56 70 0 23
        -35 66 -59 73 -11 2 -32 -2 -48 -10 -37 -19 -73 -4 -73 31 0 38 -10 56 -41 71
        -34 18 -37 18 -69 2z"/>
        <path d="M767 2543 c-9 -21 -129 -346 -266 -722 -137 -376 -261 -700 -276
        -720 -34 -51 -91 -81 -150 -81 -33 0 -45 -4 -42 -12 5 -16 446 -18 450 -3 1 6
        -17 13 -40 16 -97 13 -97 46 5 345 l78 229 241 3 241 2 26 -68 c14 -37 26 -73
        26 -79 0 -6 -19 -22 -42 -36 -148 -88 -281 -273 -323 -450 -19 -81 -19 -243 0
        -316 44 -170 156 -328 314 -444 l63 -47 -105 0 c-196 0 -261 32 -287 140 -14
        59 -30 66 -30 13 1 -76 28 -265 39 -276 9 -9 89 -12 294 -10 l282 1 3 39 c3
        36 0 42 -38 68 -105 73 -245 252 -306 394 -53 120 -68 203 -61 345 6 138 23
        211 72 312 31 64 130 184 152 184 9 0 123 -297 123 -322 0 -9 -8 -21 -17 -27
        -10 -5 -15 -12 -11 -16 12 -12 411 -11 415 1 2 7 -17 13 -52 16 -65 5 -94 24
        -147 94 -47 61 -154 322 -139 337 6 6 62 13 124 15 131 5 190 -8 300 -65 89
        -47 191 -155 240 -255 59 -121 72 -183 71 -353 0 -135 -3 -158 -27 -230 -14
        -44 -43 -109 -64 -144 -50 -85 -167 -208 -253 -267 -61 -42 -70 -51 -70 -78 0
        -17 4 -35 8 -41 8 -11 495 -20 549 -10 23 4 34 13 42 35 13 39 36 279 27 288
        -10 10 -23 -15 -30 -59 -15 -95 -90 -129 -280 -129 l-120 0 60 52 c86 76 149
        144 206 223 104 146 141 252 140 405 -1 201 -61 349 -197 485 -139 140 -316
        207 -545 207 -63 0 -137 -5 -164 -11 -27 -7 -50 -10 -53 -8 -2 3 -85 215 -183
        473 -217 565 -229 594 -245 594 -6 0 -19 -17 -28 -37z m108 -569 c57 -159 101
        -292 98 -296 -7 -13 -413 -10 -413 3 0 9 164 522 185 577 3 8 10 12 17 10 6
        -2 57 -134 113 -294z"/>
    </g>
</svg>
